<?xml version="1.0" encoding="UTF-8"?>
<svg id="Layer_1" xmlns="http://www.w3.org/2000/svg" version="1.1" viewBox="0 0 169.2 124.2">
  <!-- Generator: Adobe Illustrator 30.0.0, SVG Export Plug-In . SVG Version: 2.1.1 Build 123)  -->
  <defs>
    <style>
      .st0 {
        fill: #0064f5;
      }

      .st1 {
        fill: #77df40;
      }
    </style>
  </defs>
  <path class="st0" d="M141.6,28.8h-13.8v8.3c-3-4-6.5-6.7-10.9-8.1-13.7-4.4-26.3-.8-34.8,11.5-7.5,11-7.9,23-1.5,34.6,7.4,13.3,19.1,17.9,32.3,15.3,5.5-1.1,10.6-3.2,14.7-7.5.7,6.3-2.1,13.9-8.2,17.3-8.1,4.6-20,3.4-27-2.8-.8-.7-1.5-1.6-2.2-2.3-3.2,3.2-6.4,6.3-9.6,9.5.2.3.5.7.8,1,1.5,1.5,3.1,3,4.8,4.2,4,2.9,8.8,4.6,13.5,5.7,1.8.4,3.7.7,5.6.9,3.1.3,6.1.3,9.2-.2,8.3-1.2,16.8-5.6,21.3-12.8,4.1-6.6,5.6-14,5.6-21.6.1-17.3,0-34.5,0-51.8,0-.5,0-1,0-1.4ZM108.8,78.8c-11.2,0-19.3-8.3-19.3-19.6,0-11.3,8.2-19.7,19.4-19.7,11.2,0,19.4,8.4,19.3,19.8,0,11.3-8.2,19.5-19.4,19.5Z"/>
  <path class="st0" d="M56.2,36.7c-3.1-3.4-6.5-6.1-10.7-7.6-12.1-4.3-26.1-1.3-35,11.4-9.6,13.7-7,33.2,5.9,43.9,9.5,7.9,20.3,8.6,31.5,4.1,3-1.2,5.6-3.3,8.5-5v6.2h13.4V28.8h-13.6v7.9ZM37.1,78.8c-11.3,0-19.5-8.3-19.5-19.7,0-11.4,8.3-19.7,19.6-19.6,11.2,0,19.3,8.4,19.3,19.7,0,11.3-8.2,19.6-19.4,19.6Z"/>
  <path class="st1" d="M156.2,4.5c-4.9,0-8.9,4-8.9,8.8,0,4.9,3.9,8.8,8.9,8.8,4.8,0,8.7-3.9,8.8-8.7,0-4.8-3.9-8.9-8.8-8.9Z"/>
  <path class="st0" d="M149.3,28.6v58.9c0,.3,0,.7,0,1v1.1h6.6c2.3,0,4.6,0,7,0V28.5h-13.6Z"/>
</svg>