<?xml version="1.0" encoding="UTF-8"?>
<svg id="Layer_1" xmlns="http://www.w3.org/2000/svg" version="1.1" viewBox="0 0 771.6 203.8">
  <!-- Generator: Adobe Illustrator 30.0.0, SVG Export Plug-In . SVG Version: 2.1.1 Build 123)  -->
  <defs>
    <style>
      .st0 {
        font-size: 96.3px;
      }

      .st0, .st1 {
        fill: #0064f5;
        font-family: AgibankSans-Bold, 'Agibank Sans';
        font-weight: 700;
      }

      .st2 {
        fill: #fff;
      }

      .st1 {
        font-size: 60.5px;
      }
    </style>
  </defs>
  <g>
    <path class="st2" d="M68.1,55.7V4.7c0-.4.2-.6.6-.6h28.5c.4,0,.6.2.6.6v3.7c0,.4-.2.6-.6.6h-23.8v18.9h21.3c.4,0,.6.2.6.6v3.7c0,.4-.2.6-.6.6h-21.3v22.7c0,.4-.2.6-.6.6h-4.1c-.4,0-.6-.2-.6-.6Z"/>
    <path class="st2" d="M113.5,54.6c-2.7-1.6-4.9-3.8-6.5-6.7s-2.4-6.1-2.4-9.7.8-6.8,2.4-9.7c1.6-2.9,3.7-5.1,6.4-6.7,2.7-1.6,5.7-2.4,8.9-2.4s6.1.8,8.8,2.4c2.7,1.6,4.9,3.8,6.4,6.7,1.6,2.9,2.4,6.1,2.4,9.7s-.8,6.9-2.4,9.7c-1.6,2.9-3.7,5.1-6.4,6.7-2.7,1.6-5.6,2.4-8.8,2.4s-6.1-.8-8.9-2.4ZM128.9,50.8c1.8-1.1,3.2-2.7,4.3-4.7,1.1-2.1,1.6-4.5,1.6-7.3s-.6-5.5-1.8-7.7c-1.2-2.2-2.8-4-4.8-5.2-2-1.2-4.1-1.8-6.4-1.8s-4.2.5-6.1,1.6c-1.8,1.1-3.3,2.7-4.3,4.7-1.1,2.1-1.6,4.5-1.6,7.3s.6,5.5,1.8,7.7c1.2,2.2,2.8,4,4.8,5.2,2,1.2,4.2,1.9,6.5,1.9s4.2-.5,6-1.6Z"/>
    <path class="st2" d="M150.8,55.7V20.9c0-.2,0-.4.2-.5s.3-.2.4-.2h3.6c.2,0,.3,0,.4.2s.2.3.2.5v5.4c1.3-2.1,2.7-3.8,4.4-5s3.6-1.8,5.6-1.8,3.1.4,4.6,1.1c.3.1.4.3.4.6,0,.1,0,.2,0,.4l-1,3.3c0,.3-.3.4-.6.4s-.3,0-.4,0c-.7-.3-1.3-.5-1.9-.7s-1.2-.3-2-.3c-1.7,0-3.2.5-4.7,1.6-1.4,1-2.8,2.6-4.1,4.8v24.9c0,.2,0,.4-.2.5s-.3.2-.5.2h-3.9c-.4,0-.6-.2-.6-.6Z"/>
    <path class="st2" d="M180,55.7V20.9c0-.2,0-.4.2-.5s.3-.2.4-.2h3.6c.2,0,.3,0,.4.2s.2.3.2.5v4.9c1.4-2.1,3-3.6,4.8-4.7,1.9-1.1,3.9-1.6,6-1.6s4.4.6,6.1,1.8c1.7,1.2,3.1,2.8,3.9,4.9,3.3-4.5,7.2-6.7,11.7-6.7s4.2.5,6,1.6c1.7,1.1,3.1,2.5,4.1,4.4,1,1.9,1.4,4.1,1.4,6.7v23.5c0,.4-.2.6-.6.6h-3.9c-.2,0-.4,0-.5-.2s-.2-.3-.2-.5v-22c0-1.9-.3-3.5-1-4.9-.6-1.4-1.6-2.5-2.7-3.2-1.2-.8-2.5-1.1-4.1-1.1-3.3,0-6.3,1.7-9,5.1v26.2c0,.4-.2.6-.6.6h-3.9c-.4,0-.6-.2-.6-.6v-22c0-1.8-.3-3.4-1-4.9-.6-1.4-1.6-2.5-2.7-3.3-1.2-.8-2.5-1.1-4.1-1.1s-3.2.4-4.7,1.3c-1.5.9-3,2.2-4.3,4.1v25.9c0,.2,0,.4-.2.5s-.3.2-.5.2h-3.9c-.4,0-.6-.2-.6-.6Z"/>
    <path class="st2" d="M244.9,55.8c-1.6-.8-2.9-1.9-3.8-3.4-.9-1.4-1.4-3.1-1.4-5,0-2.9.9-5.3,2.8-7.1,1.9-1.8,4.5-2.9,7.8-3.4l11.4-1.6v-2.2c0-2.7-.8-4.9-2.5-6.5-1.7-1.6-4-2.4-7-2.4s-6.3.8-9.8,2.4c-.1,0-.3,0-.3,0-.3,0-.5-.2-.4-.6l.4-3.2c0-.5.3-.9.7-1.1,1.4-.7,3-1.3,4.8-1.7,1.8-.4,3.6-.6,5.5-.6,2.7,0,5.1.6,7.2,1.7,2.1,1.1,3.7,2.7,4.8,4.6,1.1,2,1.7,4.2,1.7,6.7v14.1c0,1.8,0,3.3.1,4.7,0,1.3.3,2.7.6,4.1h0c0,.5-.2.7-.6.7l-3.3.3h-.2c-.3,0-.6-.2-.7-.6-.3-.8-.5-2-.7-3.4-1.7,1.5-3.5,2.6-5.5,3.4-2,.8-3.9,1.1-5.9,1.1s-3.9-.4-5.5-1.2ZM256.7,51.7c1.7-.7,3.4-1.7,5-3v-9.3l-10.4,1.5c-2.1.3-3.6.9-4.8,2-1.1,1-1.7,2.4-1.7,4s.6,3.2,1.8,4.3c1.2,1.1,2.9,1.6,5,1.6s3.4-.4,5.1-1.1Z"/>
    <path class="st2" d="M290.4,70.4c-.8-.2-1.6-.5-2.2-.8-.3-.2-.5-.4-.7-.6-.1-.2-.2-.5-.3-.9l-.3-2.6h0c0-.5.1-.6.4-.6s.4,0,.5.1c.7.5,1.5.8,2.3,1.1.9.3,1.7.4,2.6.4s2.1-.2,2.8-.6c.7-.4,1-1,1-1.8s-.4-1.2-1.2-1.6c-.8-.4-2.1-.8-4-1-.6,0-.8-.3-.7-.9l.6-4c-2.7-.5-5.2-1.6-7.4-3.3-2.2-1.7-3.9-3.8-5.2-6.4-1.3-2.6-1.9-5.5-1.9-8.7s.8-6.9,2.4-9.7c1.6-2.9,3.7-5.1,6.5-6.7,2.7-1.6,5.8-2.4,9.1-2.4s3.7.3,5.5.8c1.8.5,3.5,1.3,5.1,2.3.2.1.3.3.3.5s0,.2-.1.4l-1.8,3.1c0,.2-.3.3-.5.3s-.3,0-.4-.1c-3-1.8-5.9-2.7-8.9-2.7s-4.3.5-6.1,1.6c-1.8,1.1-3.3,2.6-4.3,4.7-1.1,2.1-1.6,4.5-1.6,7.3s.6,5.6,1.9,7.8c1.2,2.2,2.9,4,5,5.1,2.1,1.2,4.4,1.8,6.9,1.8s5.7-.7,8.8-2.1c.1,0,.3-.1.4-.1.3,0,.5.2.4.7l-.3,3.1c0,.3-.1.5-.2.7,0,.1-.3.3-.6.4-1.3.6-2.7,1.1-4.2,1.4-1.6.4-3.2.5-4.9.5l-.2,1.7c2.1.3,3.6,1,4.6,1.9,1,.9,1.5,2.1,1.5,3.4s-.3,2.4-1,3.4c-.7,1-1.6,1.8-2.9,2.3-1.2.6-2.6.8-4.2.8s-1.8-.1-2.6-.3Z"/>
    <path class="st2" d="M318.2,55.8c-1.6-.8-2.9-1.9-3.8-3.4-.9-1.4-1.4-3.1-1.4-5,0-2.9.9-5.3,2.8-7.1,1.9-1.8,4.5-2.9,7.8-3.4l11.4-1.6v-2.2c0-2.7-.8-4.9-2.5-6.5-1.7-1.6-4-2.4-7-2.4s-6.3.8-9.8,2.4c-.1,0-.3,0-.3,0-.3,0-.5-.2-.4-.6l.4-3.2c0-.5.3-.9.7-1.1,1.4-.7,3-1.3,4.8-1.7,1.8-.4,3.6-.6,5.5-.6,2.7,0,5.1.6,7.2,1.7,2.1,1.1,3.7,2.7,4.8,4.6,1.1,2,1.7,4.2,1.7,6.7v14.1c0,1.8,0,3.3.1,4.7,0,1.3.3,2.7.6,4.1h0c0,.5-.2.7-.6.7l-3.3.3h-.2c-.3,0-.6-.2-.7-.6-.3-.8-.5-2-.7-3.4-1.7,1.5-3.5,2.6-5.5,3.4-2,.8-3.9,1.1-5.9,1.1s-3.9-.4-5.5-1.2ZM316.4,10c.5-2,1.3-3.5,2.5-4.6,1.1-1.1,2.5-1.7,4.3-1.7s1.9.2,2.6.5c.8.3,1.6.9,2.6,1.6.7.5,1.3.9,1.8,1.1.5.2,1,.4,1.5.4.8,0,1.5-.3,2.1-.8.6-.6,1-1.4,1.4-2.5.1-.3.4-.5.8-.4l2,.5c.4.1.6.4.5.8-.5,2-1.4,3.5-2.5,4.6s-2.5,1.7-4.2,1.7-1.9-.2-2.6-.5c-.8-.3-1.6-.9-2.6-1.6-.7-.5-1.3-.9-1.8-1.1-.5-.2-1-.4-1.5-.4-.8,0-1.5.3-2.1.8-.6.5-1,1.4-1.4,2.5-.1.4-.4.5-.8.4l-2-.5c-.4-.1-.6-.4-.5-.8ZM330,51.7c1.7-.7,3.4-1.7,5-3v-9.3l-10.4,1.5c-2.1.3-3.6.9-4.8,2-1.1,1-1.7,2.4-1.7,4s.6,3.2,1.8,4.3c1.2,1.1,2.9,1.6,5,1.6s3.4-.4,5.1-1.1Z"/>
    <path class="st2" d="M359.1,54.6c-2.7-1.6-4.9-3.8-6.5-6.7s-2.4-6.1-2.4-9.7.8-6.8,2.4-9.7c1.6-2.9,3.7-5.1,6.4-6.7,2.7-1.6,5.7-2.4,8.9-2.4s6.1.8,8.8,2.4c2.7,1.6,4.9,3.8,6.4,6.7,1.6,2.9,2.4,6.1,2.4,9.7s-.8,6.9-2.4,9.7c-1.6,2.9-3.7,5.1-6.4,6.7-2.7,1.6-5.6,2.4-8.8,2.4s-6.1-.8-8.9-2.4ZM374.5,50.8c1.8-1.1,3.2-2.7,4.3-4.7,1.1-2.1,1.6-4.5,1.6-7.3s-.6-5.5-1.8-7.7c-1.2-2.2-2.8-4-4.8-5.2-2-1.2-4.1-1.8-6.4-1.8s-4.2.5-6.1,1.6c-1.8,1.1-3.3,2.7-4.3,4.7-1.1,2.1-1.6,4.5-1.6,7.3s.6,5.5,1.8,7.7c1.2,2.2,2.8,4,4.8,5.2,2,1.2,4.2,1.9,6.5,1.9s4.2-.5,6-1.6Z"/>
    <path class="st2" d="M421.4,54.7c-2.6-1.5-4.6-3.7-6.2-6.6-1.5-2.9-2.3-6.1-2.3-9.8s.8-6.9,2.4-9.7c1.6-2.9,3.7-5.1,6.3-6.7,2.6-1.6,5.5-2.4,8.6-2.4s3.8.3,5.5.8,3.3,1.3,4.7,2.2V3.3c0-.4.2-.6.6-.6h3.9c.4,0,.6.2.6.6v52.3c0,.4-.2.6-.6.6h-3.6c-.4,0-.6-.2-.6-.6v-3.6c-1.3,1.6-2.9,2.8-4.7,3.6-1.9.9-4,1.3-6.4,1.3s-5.7-.8-8.3-2.3ZM436.1,51.4c1.7-.7,3.1-1.8,4.4-3.2v-20c-1.4-1.3-3-2.3-4.7-3-1.8-.7-3.6-1.1-5.6-1.1s-4.2.5-6.1,1.6c-1.8,1.1-3.3,2.7-4.4,4.7-1.1,2.1-1.6,4.5-1.6,7.3s.6,5.6,1.7,7.8c1.1,2.2,2.7,4,4.6,5.2,1.9,1.2,4.1,1.8,6.4,1.8s3.6-.4,5.3-1.1Z"/>
    <path class="st2" d="M464.5,54.7c-2.9-1.5-5.1-3.7-6.8-6.6-1.7-2.9-2.5-6.2-2.5-10.1s.7-6.8,2.2-9.6c1.5-2.8,3.5-5,6.1-6.6,2.6-1.6,5.5-2.4,8.7-2.4s5.9.7,8.2,2.1c2.3,1.4,4.1,3.4,5.3,5.9,1.2,2.5,1.8,5.3,1.8,8.5s0,1.9-.3,2.7c0,.3-.2.6-.4.7-.2.1-.4.2-.8.2h-25.7c.3,2.7,1.1,5.1,2.4,7s3,3.4,5.1,4.4c2.1,1,4.3,1.5,6.8,1.5s3.4-.2,5.1-.5c1.7-.4,3.3-.9,4.7-1.6.1,0,.3-.1.4-.1.3,0,.5.2.4.7l-.3,3c0,.3-.1.5-.2.7,0,.1-.3.3-.6.4-1.3.6-2.8,1.1-4.6,1.4-1.8.3-3.6.5-5.6.5-3.5,0-6.6-.8-9.5-2.3ZM481.1,29.1c-1-1.7-2.3-3-3.9-3.9-1.6-.9-3.4-1.3-5.5-1.3s-3.9.5-5.6,1.4c-1.7.9-3,2.2-4,4-1,1.7-1.6,3.8-1.9,6.2h22.4c0-2.5-.6-4.6-1.6-6.4Z"/>
    <path class="st2" d="M519.1,56.1c-.1-.1-.2-.3-.2-.5V4.7c0-.4.2-.6.6-.6h17c5,0,9.4,1.1,13.3,3.4,3.9,2.3,6.9,5.4,9.1,9.4,2.2,4,3.2,8.4,3.2,13.3s-1.1,9.5-3.4,13.5-5.4,7.1-9.3,9.3-8.3,3.3-13.1,3.3h-16.9c-.2,0-.3,0-.4-.2ZM546.9,48.9c3.1-1.6,5.5-4,7.2-7s2.6-6.7,2.6-10.9-.9-8.1-2.8-11.4c-1.8-3.3-4.4-5.9-7.6-7.7-3.2-1.8-6.8-2.7-10.8-2.7h-11.4v42.2h12.2c3.9,0,7.4-.8,10.5-2.4Z"/>
    <path class="st2" d="M580.3,54.7c-2.9-1.5-5.1-3.7-6.8-6.6-1.7-2.9-2.5-6.2-2.5-10.1s.7-6.8,2.2-9.6c1.5-2.8,3.5-5,6.1-6.6,2.6-1.6,5.5-2.4,8.7-2.4s5.9.7,8.2,2.1c2.3,1.4,4.1,3.4,5.3,5.9,1.2,2.5,1.8,5.3,1.8,8.5s0,1.9-.3,2.7c0,.3-.2.6-.4.7-.2.1-.4.2-.8.2h-25.7c.3,2.7,1.1,5.1,2.4,7s3,3.4,5.1,4.4c2.1,1,4.3,1.5,6.8,1.5s3.4-.2,5.1-.5c1.7-.4,3.3-.9,4.7-1.6.1,0,.3-.1.4-.1.3,0,.5.2.4.7l-.3,3c0,.3-.1.5-.2.7,0,.1-.3.3-.6.4-1.3.6-2.8,1.1-4.6,1.4-1.8.3-3.6.5-5.6.5-3.5,0-6.6-.8-9.5-2.3ZM596.8,29.1c-1-1.7-2.3-3-3.9-3.9-1.6-.9-3.4-1.3-5.5-1.3s-3.9.5-5.6,1.4c-1.7.9-3,2.2-4,4-1,1.7-1.6,3.8-1.9,6.2h22.4c0-2.5-.6-4.6-1.6-6.4Z"/>
    <path class="st2" d="M623.3,55.9l-15.3-34.9v-.3c0-.1,0-.3,0-.4.1,0,.3-.1.4-.1h4.3c.4,0,.7.2.8.7l11.6,27.6,11.4-27.6c0-.2.2-.4.3-.5.1,0,.3-.1.5-.1h3.9c.1,0,.3,0,.4.1.1,0,.2.2.2.3s0,.1,0,.3l-15.2,34.9c-.2.4-.4.7-.8.7h-1.7c-.3,0-.6-.2-.8-.7Z"/>
    <path class="st2" d="M648.6,53.4c-.2-.2-.4-.3-.5-.5-.1-.2-.2-.4-.2-.6l-.3-3.7h0c0-.5.1-.6.4-.6s.3,0,.4.2c2,1.5,4.1,2.6,6.3,3.4,2.2.8,4.3,1.2,6.3,1.2s4.2-.5,5.6-1.5c1.4-1,2.1-2.3,2.1-4s-.4-2.3-1.2-3.2c-.8-.9-1.8-1.5-3-2.1-1.2-.5-2.8-1.1-4.9-1.8-2.5-.9-4.6-1.7-6.1-2.4-1.5-.7-2.9-1.8-3.9-3.1-1.1-1.3-1.6-3-1.6-5.1s.5-3.8,1.6-5.3c1-1.5,2.5-2.7,4.5-3.6,1.9-.8,4.2-1.3,6.8-1.3,4.1,0,7.9,1.1,11.3,3.3.2.1.3.3.3.4s0,.2-.1.3l-1.7,3.1c0,.2-.3.3-.5.3s-.2,0-.4-.1c-1.6-1-3.2-1.8-4.8-2.3-1.6-.5-3.2-.7-5-.7s-3.8.5-5.1,1.4-1.9,2.2-1.9,3.8.4,2.1,1.1,2.8c.8.8,1.7,1.4,2.9,1.9,1.1.5,2.7,1.1,4.7,1.7,2.6.9,4.7,1.7,6.3,2.5,1.6.8,3,1.9,4.1,3.3s1.7,3.2,1.7,5.4-.5,3.7-1.6,5.3c-1,1.6-2.5,2.8-4.5,3.7-2,.9-4.2,1.4-6.9,1.4-4.8,0-9-1.2-12.3-3.6Z"/>
    <path class="st2" d="M68.3,146.8c-.2-.2-.3-.5-.3-.9v-44.8c0-.4.1-.7.3-.9s.5-.3.9-.3h9.6c.4,0,.7.1,1,.3.2.2.3.5.3.9v5.6c1.8-2.7,3.9-4.7,6.4-6,2.5-1.3,5.2-2,8.2-2s6.1.7,8.6,2.2c2.5,1.5,4.4,3.5,5.7,6.1,1.3,2.6,2,5.6,2,8.9v30.1c0,.4-.1.7-.3.9s-.5.3-.9.3h-10.3c-.4,0-.7-.1-.9-.3-.2-.2-.3-.5-.3-.9v-26.5c0-2.6-.7-4.6-2.1-6.1-1.4-1.5-3.3-2.3-5.8-2.3-3.6,0-6.8,1.5-9.7,4.5v30.4c0,.4-.1.7-.3.9s-.5.3-1,.3h-10.2c-.4,0-.7-.1-.9-.3Z"/>
    <path class="st2" d="M127.5,146.8c-2.3-1.1-4.1-2.6-5.4-4.7-1.3-2-2-4.4-2-7.1,0-4.1,1.3-7.3,3.8-9.8,2.6-2.4,6.2-4,10.8-4.6l13.3-1.9v-.7c0-1.3-.4-2.6-1.1-3.8-.7-1.2-1.8-2.2-3.3-2.9-1.5-.7-3.5-1.1-5.8-1.1-4.2,0-8.8,1.1-13.7,3.2-.2,0-.4.1-.6.1-.3,0-.5-.1-.7-.3-.2-.2-.2-.5-.2-.8l1-8.9c0-.8.5-1.4,1.3-1.8,2.1-1,4.5-1.7,7-2.3,2.6-.5,5.2-.8,7.8-.8,4.3,0,8,.8,11.1,2.4,3.1,1.6,5.5,3.9,7.1,6.8,1.6,2.9,2.4,6.4,2.4,10.2v13.4c0,2.7,0,5,.3,7.1.2,2.1.5,4.3,1.1,6.7,0,.4,0,.7-.2.9-.2.3-.5.4-.9.4l-9.5.9c-.8,0-1.4-.2-1.6-1-.4-1.2-.7-2.6-.9-4-1.9,1.8-4,3.2-6.4,4.2-2.4,1-4.8,1.5-7.3,1.5s-5.2-.5-7.5-1.6ZM143.5,137.4c1.7-.8,3.3-1.8,4.7-2.9v-7.7l-10.3,1.4c-1.7.2-3,.8-3.9,1.7s-1.4,2.1-1.4,3.4.5,2.8,1.6,3.7c1.1,1,2.5,1.5,4.3,1.5s3.2-.4,4.9-1.2Z"/>
    <path class="st2" d="M184.4,146.4c-2.6-1.3-4.6-3.3-5.9-5.9-1.4-2.6-2.1-5.8-2.1-9.5v-19.9h-8.6c-.4,0-.7-.1-1-.4-.2-.3-.3-.6-.3-1l.9-8.6c0-.8.5-1.2,1.3-1.2h7.6v-10.5c0-.4.1-.7.3-.9s.5-.3.9-.3h10.3c.4,0,.7.1.9.3.2.2.3.5.3.9v10.5h12.7c.4,0,.7.1.9.3.2.2.3.5.3.9v8.6c0,.4-.1.7-.3.9s-.5.3-.9.3h-12.7v18.4c0,2.2.6,4,1.8,5.3,1.2,1.3,2.9,1.9,5.1,1.9s4.7-.5,7.2-1.5c.3,0,.5-.1.6-.1.3,0,.6.1.7.4.2.2.2.6.2,1l-1,8.6c0,.5-.2.9-.4,1.1-.2.2-.6.5-1,.7-1.3.5-2.7.9-4.2,1.3-1.6.3-3.1.5-4.7.5-3.4,0-6.4-.7-9-2Z"/>
    <path class="st2" d="M215,91.3c-1.2-.7-2.2-1.6-2.9-2.8-.7-1.2-1.1-2.5-1.1-4s.4-2.8,1.1-4c.7-1.2,1.7-2.1,2.9-2.7,1.2-.7,2.5-1,4-1s2.8.3,4,1,2.2,1.6,2.9,2.8c.7,1.2,1.1,2.5,1.1,4s-.4,2.8-1.1,4c-.7,1.2-1.7,2.1-2.9,2.7-1.2.7-2.5,1-4,1s-2.8-.3-4-1ZM212.9,146.8c-.2-.2-.3-.5-.3-.9v-44.8c0-.4.1-.7.3-.9s.5-.3.9-.3h10.2c.4,0,.7.1,1,.3.2.2.3.5.3.9v44.8c0,.4-.1.7-.3.9s-.5.3-1,.3h-10.2c-.4,0-.7-.1-.9-.3Z"/>
    <path class="st2" d="M253.5,147c-.2-.2-.5-.4-.7-.9l-20-44.7c0-.2-.1-.4-.1-.6,0-.3.1-.5.3-.7.2-.2.5-.3.8-.3h11.6c.8,0,1.3.4,1.6,1.1l11.1,27.8,10.9-27.8c.3-.7.8-1.1,1.6-1.1h10.4c.3,0,.6,0,.8.3.2.2.3.4.3.7s0,.4-.1.6l-20.3,44.7c-.2.4-.4.7-.7.9s-.6.2-1,.2h-5.5c-.4,0-.7,0-.9-.2Z"/>
    <path class="st2" d="M295.5,145.1c-3.7-2.2-6.6-5.1-8.6-8.9-2.1-3.8-3.1-8-3.1-12.7s1.1-8.9,3.2-12.7c2.1-3.8,5-6.8,8.7-8.9,3.7-2.2,7.9-3.2,12.5-3.2s8.9,1.1,12.6,3.3c3.7,2.2,6.6,5.2,8.6,8.9,2.1,3.8,3.1,8,3.1,12.6s-1.1,9-3.2,12.7c-2.1,3.8-5,6.7-8.7,8.9s-7.8,3.2-12.4,3.2-8.9-1.1-12.6-3.3ZM314.5,135.7c1.7-1.1,2.9-2.6,3.9-4.5.9-1.9,1.4-4.2,1.4-6.7s-.5-5.3-1.6-7.5c-1.1-2.2-2.6-4-4.5-5.3-1.9-1.3-4-2-6.3-2s-4,.5-5.7,1.6c-1.7,1.1-3,2.6-3.9,4.5-.9,1.9-1.4,4.2-1.4,6.7s.6,5.3,1.7,7.5c1.1,2.2,2.6,4,4.5,5.3,1.9,1.3,4,2,6.3,2s4-.5,5.6-1.6Z"/>
    <path class="st2" d="M341.3,143.9c-.4-.3-.7-.5-.9-.8-.2-.3-.3-.6-.4-1l-.6-8.7c0-.4,0-.7.2-.9.2-.2.4-.3.6-.3s.5,0,.8.3c2.9,2.1,5.9,3.7,9.1,4.8,3.2,1.1,6.1,1.7,8.7,1.7s3.3-.4,4.3-1.1c1-.7,1.5-1.6,1.5-2.7s-.4-1.8-1.1-2.5c-.8-.7-1.7-1.2-2.8-1.7-1.1-.5-2.8-1.1-4.9-1.8-3.3-1.1-6.1-2.2-8.2-3.2-2.2-1-4.1-2.6-5.6-4.6-1.6-2-2.4-4.5-2.4-7.6s.8-5.5,2.3-7.8c1.5-2.3,3.7-4,6.5-5.3,2.8-1.3,6.2-1.9,10-1.9s6,.4,8.9,1.2c2.9.8,5.6,2,8.1,3.5.4.2.6.5.6.9s0,.5-.2.7l-4.2,7.5c-.3.5-.6.7-1,.7s-.5,0-.8-.3c-2.3-1.5-4.5-2.6-6.6-3.3-2.1-.7-4.1-1.1-6.2-1.1s-2.8.3-3.7,1c-.9.6-1.3,1.5-1.3,2.7s.4,1.6,1.1,2.3c.7.6,1.7,1.2,2.8,1.6,1.1.4,2.7,1,4.7,1.7,3.4,1.1,6.2,2.2,8.4,3.2,2.2,1,4.1,2.6,5.8,4.6,1.6,2,2.4,4.5,2.4,7.6s-.7,5.5-2.2,7.8-3.7,4.1-6.5,5.4c-2.8,1.3-6.2,2-10.1,2-6.5,0-12.1-1.5-16.9-4.5Z"/>
    <path class="st2" d="M419.7,145.3c-3.9-2.1-6.9-5-9.1-8.7-2.2-3.8-3.3-8.1-3.3-13.1s1-8.9,3-12.7,4.8-6.7,8.4-8.9c3.6-2.2,7.7-3.2,12.2-3.2s8.4,1,11.6,3c3.2,2,5.6,4.7,7.2,8,1.6,3.3,2.4,7,2.4,10.9s-.1,3-.4,4.4c-.1.6-.4,1.1-.7,1.4-.4.3-.9.5-1.6.5h-29.7c.9,3.4,2.6,6,5.2,7.8,2.6,1.8,5.8,2.7,9.7,2.7s4.4-.2,6.7-.7c2.2-.4,4.4-1.1,6.3-1.9.3,0,.5-.1.7-.1.3,0,.6.1.7.3.2.2.2.5.2.9l-1,7.9c0,.5-.2,1-.4,1.2-.2.3-.5.5-1,.7-1.9.8-4,1.4-6.5,1.9-2.4.4-5,.7-7.6.7-4.9,0-9.4-1-13.2-3.1ZM436.9,111.3c-1.9-1.7-4.2-2.6-7.1-2.6s-5.2.9-7.1,2.6c-1.9,1.8-3.1,4.2-3.5,7.2h21c-.4-3.1-1.5-5.5-3.3-7.2Z"/>
    <path class="st2" d="M462.3,146.8c-.2-.2-.3-.5-.3-.9v-44.8c0-.4.1-.7.3-.9s.5-.3.9-.3h9.6c.4,0,.7.1,1,.3.2.2.3.5.3.9v5.4c1.6-2.6,3.6-4.6,5.9-5.9,2.4-1.3,4.9-2,7.7-2s5.5.7,7.7,2.1c2.2,1.4,3.9,3.4,5.1,5.9,4.2-5.3,9.2-8,14.7-8s5.9.7,8.3,2.2c2.3,1.4,4.1,3.5,5.3,6,1.2,2.6,1.9,5.5,1.9,8.8v30.2c0,.4-.1.7-.3.9s-.5.3-.9.3h-10.3c-.4,0-.7-.1-.9-.3-.2-.2-.3-.5-.3-.9v-26.5c0-2.6-.6-4.6-1.8-6.1s-2.9-2.2-5-2.2c-3.1,0-5.9,1.5-8.4,4.4v30.5c0,.4-.1.7-.3.9s-.5.3-.9.3h-10.2c-.4,0-.7-.1-.9-.3-.2-.2-.4-.5-.4-.9v-26.5c0-2.6-.6-4.6-1.8-6.1-1.2-1.5-2.8-2.3-5-2.3s-3,.4-4.4,1.1c-1.4.7-2.8,1.8-4,3.3v30.5c0,.4-.1.7-.3.9s-.5.3-1,.3h-10.2c-.4,0-.7-.1-.9-.3Z"/>
    <path class="st2" d="M563.5,90.4c-.2-.2-.3-.5-.3-.9l.8-8.9c0-.4.2-.7.4-.9.2-.2.5-.3.9-.3h36.5c.4,0,.7.1,1,.3.2.2.3.5.3.9v8.9c0,.4-.1.7-.3.9-.2.2-.5.3-.9.3h-11.6v45.1h12.3c.4,0,.7.1,1,.3s.3.5.3.9l-.8,8.9c0,.8-.5,1.3-1.3,1.3h-36.8c-.4,0-.7-.1-.9-.3-.2-.2-.3-.5-.3-.9v-8.9c0-.4.1-.7.3-.9.2-.2.5-.3.9-.3h11.8v-45.1h-12.3c-.4,0-.7-.1-.9-.3Z"/>
    <path class="st2" d="M608.5,146.9c-.2-.2-.3-.4-.3-.7s0-.4.1-.6l28.1-65.2c.3-.7.9-1.1,1.6-1.1h6.6c.4,0,.7,0,.9.3.2.2.5.5.6.9l28.3,65.2c0,.2.1.4.1.6,0,.3-.1.5-.3.7-.2.2-.5.3-.8.3h-11.8c-.4,0-.7,0-1-.2-.2-.2-.4-.4-.6-.9l-4.8-11.7h-29.5l-4.6,11.6c-.2.4-.4.7-.7.9-.3.2-.6.3-1,.3h-10.2c-.4,0-.6,0-.8-.3ZM650.7,123.1l-10.3-25-10,25h20.3Z"/>
  </g>
  <g>
    <path class="st2" d="M70.8,196.2c-1.2-.4-2.3-.9-3.3-1.6,0,0-.2-.1-.2-.2s0-.2,0-.3v-1.9c-.1,0-.1,0-.1,0,0,0,0-.1,0-.2,0,0,0,0,.1,0s.1,0,.2,0c1.2.9,2.4,1.6,3.6,2,1.3.5,2.5.7,3.6.7s1.9-.2,2.7-.5c.8-.3,1.3-.8,1.8-1.4.4-.6.6-1.4.6-2.2s-.3-1.6-.8-2.2c-.5-.6-1.1-1.1-1.9-1.4-.7-.4-1.8-.8-3-1.2-1.5-.5-2.7-1-3.6-1.5-.9-.5-1.7-1.1-2.3-1.9-.6-.8-.9-1.8-.9-3.1s.3-2.1.9-3.1c.6-.9,1.4-1.7,2.5-2.2s2.4-.8,3.8-.8c2.5,0,4.7.7,6.7,2.1,0,0,.1.2.1.3s0,.1,0,.2l-.9,1.5c0,0-.1.1-.2.1s-.1,0-.2,0c-.8-.7-1.8-1.2-2.8-1.5-1-.3-2-.5-3.1-.5s-1.8.2-2.4.5c-.7.3-1.2.7-1.5,1.3-.4.6-.5,1.2-.5,1.9s.2,1.5.7,2.1c.5.6,1.1,1,1.8,1.4.7.4,1.7.8,3,1.2,1.5.6,2.7,1.1,3.6,1.5.9.5,1.7,1.1,2.3,2,.6.8,1,1.9,1,3.2s-.3,2.3-.9,3.3c-.6,1-1.5,1.8-2.6,2.3-1.1.6-2.4.8-3.9.8s-2.6-.2-3.8-.6Z"/>
    <path class="st2" d="M89.8,195.8c-1.3-.7-2.2-1.6-3-2.9-.7-1.3-1.1-2.7-1.1-4.4s.3-3,1-4.2c.7-1.2,1.5-2.2,2.7-2.9,1.1-.7,2.4-1,3.8-1s2.6.3,3.6.9c1,.6,1.8,1.5,2.3,2.6s.8,2.3.8,3.7,0,.8-.1,1.2c0,.2-.1.3-.2.3,0,0-.2,0-.4,0h-11.3c.1,1.2.5,2.2,1.1,3.1.6.8,1.3,1.5,2.2,1.9s1.9.7,3,.7,1.5,0,2.2-.2c.7-.2,1.4-.4,2.1-.7,0,0,.1,0,.2,0,.1,0,.2,0,.2.3v1.3c-.2.1-.2.2-.2.3s-.1.1-.2.2c-.6.3-1.3.5-2,.6s-1.6.2-2.5.2c-1.5,0-2.9-.3-4.2-1ZM97.1,184.5c-.4-.8-1-1.3-1.7-1.7s-1.5-.6-2.4-.6-1.7.2-2.5.6c-.7.4-1.3,1-1.8,1.7-.4.8-.7,1.7-.8,2.7h9.8c0-1.1-.3-2-.7-2.8Z"/>
    <path class="st2" d="M100,203.5c-.1,0-.2,0-.3-.1,0,0,0-.1-.1-.3v-1.4c-.1,0-.1,0-.1,0,0-.1,0-.2.2-.2s0,0,.1,0c.7.2,1.5.4,2.2.4s1.5-.2,2-.7c.5-.5.7-1.2.7-2.2v-18c0,0,0-.2,0-.2s.1,0,.2,0h1.7c0,0,.2,0,.2,0s0,.1,0,.2v17.8c0,1-.2,1.9-.6,2.7-.4.8-.9,1.4-1.6,1.8s-1.6.6-2.6.6-1.5-.1-2.2-.3ZM104.6,176.4c-.3-.3-.5-.8-.5-1.3s.2-.9.5-1.3c.3-.3.7-.5,1.2-.5s.9.2,1.2.5c.3.3.5.8.5,1.3s-.2.9-.5,1.2c-.3.3-.7.5-1.2.5s-.9-.2-1.2-.5Z"/>
    <path class="st2" d="M114.2,196.3c-.7-.3-1.3-.8-1.7-1.5s-.6-1.4-.6-2.2c0-1.3.4-2.3,1.2-3.1s2-1.3,3.4-1.5l5-.7v-1c0-1.2-.4-2.1-1.1-2.9-.7-.7-1.8-1.1-3.1-1.1s-2.8.4-4.3,1.1c0,0-.1,0-.1,0-.1,0-.2,0-.2-.3l.2-1.4c0-.2.1-.4.3-.5.6-.3,1.3-.6,2.1-.7.8-.2,1.6-.3,2.4-.3,1.2,0,2.3.2,3.2.7s1.6,1.2,2.1,2,.7,1.9.7,2.9v6.2c0,.8,0,1.5,0,2.1,0,.6.1,1.2.2,1.8h0c0,.2,0,.3-.3.3h-1.5c0,.1,0,.1,0,.1-.2,0-.3,0-.3-.2-.1-.4-.2-.9-.3-1.5-.7.7-1.6,1.2-2.4,1.5s-1.7.5-2.6.5-1.7-.2-2.4-.5ZM119.4,194.4c.8-.3,1.5-.8,2.2-1.3v-4.1l-4.6.7c-.9.1-1.6.4-2.1.9-.5.5-.8,1-.8,1.8s.3,1.4.8,1.9c.5.5,1.3.7,2.2.7s1.5-.2,2.3-.5Z"/>
    <path class="st2" d="M140.9,195.7c-1.2-.7-2.1-1.7-2.8-2.9s-1.1-2.7-1.1-4.3.3-3,1-4.3c.7-1.3,1.6-2.2,2.8-2.9,1.2-.7,2.5-1,3.9-1s2.7.4,3.9,1c1.2.7,2.1,1.7,2.8,2.9.7,1.3,1,2.7,1,4.3s-.3,3-1,4.3c-.7,1.3-1.6,2.2-2.8,2.9-1.2.7-2.5,1-3.9,1s-2.7-.4-3.9-1.1ZM147.7,194.1c.8-.5,1.4-1.2,1.9-2.1.5-.9.7-2,.7-3.2s-.3-2.4-.8-3.4c-.5-1-1.2-1.7-2.1-2.3-.9-.5-1.8-.8-2.8-.8s-1.9.2-2.7.7-1.4,1.2-1.9,2.1c-.5.9-.7,2-.7,3.2s.3,2.4.8,3.4c.5,1,1.2,1.8,2.1,2.3.9.5,1.8.8,2.8.8s1.8-.2,2.6-.7Z"/>
    <path class="st2" d="M167.1,196.3c-.7-.3-1.3-.8-1.7-1.5s-.6-1.4-.6-2.2c0-1.3.4-2.3,1.2-3.1s2-1.3,3.4-1.5l5-.7v-1c0-1.2-.4-2.1-1.1-2.9-.7-.7-1.8-1.1-3.1-1.1s-2.8.4-4.3,1.1c0,0-.1,0-.1,0-.1,0-.2,0-.2-.3l.2-1.4c0-.2.1-.4.3-.5.6-.3,1.3-.6,2.1-.7.8-.2,1.6-.3,2.4-.3,1.2,0,2.3.2,3.2.7s1.6,1.2,2.1,2,.7,1.9.7,2.9v6.2c0,.8,0,1.5,0,2.1,0,.6.1,1.2.2,1.8h0c0,.2,0,.3-.3.3h-1.5c0,.1,0,.1,0,.1-.2,0-.3,0-.3-.2-.1-.4-.2-.9-.3-1.5-.7.7-1.6,1.2-2.4,1.5s-1.7.5-2.6.5-1.7-.2-2.4-.5ZM172.3,194.4c.8-.3,1.5-.8,2.2-1.3v-4.1l-4.6.7c-.9.1-1.6.4-2.1.9-.5.5-.8,1-.8,1.8s.3,1.4.8,1.9c.5.5,1.3.7,2.2.7s1.5-.2,2.3-.5Z"/>
    <path class="st2" d="M182.5,202.2c-.1,0-.2-.2-.3-.2,0,0,0-.2-.1-.3v-1.6c-.1,0-.1,0-.1,0,0,0,0-.1,0-.2,0,0,0,0,.2,0s.1,0,.1,0c1,.7,2,1.2,3,1.5s2,.5,3,.5c1.6,0,2.8-.4,3.6-1.2.8-.8,1.2-1.9,1.2-3.3v-2.7c-1.2,1.3-2.8,2-4.7,2s-2.5-.3-3.6-1c-1.1-.7-2-1.6-2.7-2.9-.7-1.2-1-2.7-1-4.3s.3-3,1-4.2,1.6-2.2,2.7-2.9c1.1-.7,2.4-1,3.8-1s1.8.2,2.6.5c.8.3,1.5.7,2.1,1.2v-1.1c0,0,0-.2,0-.2s.1,0,.2,0h1.6c0,0,.1,0,.2,0s0,.1,0,.2v16.4c0,1.2-.3,2.4-.8,3.3-.6,1-1.4,1.8-2.4,2.4-1.1.6-2.4.9-3.8.9-2.2,0-4.1-.5-5.8-1.6ZM191.2,194.2c.7-.3,1.4-.8,1.9-1.4v-8.7c-.6-.6-1.3-1-2.1-1.4s-1.6-.5-2.5-.5-1.8.2-2.6.7c-.8.5-1.4,1.2-1.9,2-.5.9-.7,1.9-.7,3.2s.2,2.4.7,3.4,1.2,1.7,2,2.3c.8.5,1.8.8,2.8.8s1.6-.2,2.3-.5Z"/>
    <path class="st2" d="M204.2,195.8c-1.3-.7-2.2-1.6-3-2.9-.7-1.3-1.1-2.7-1.1-4.4s.3-3,1-4.2c.7-1.2,1.5-2.2,2.7-2.9,1.1-.7,2.4-1,3.8-1s2.6.3,3.6.9c1,.6,1.8,1.5,2.3,2.6s.8,2.3.8,3.7,0,.8-.1,1.2c0,.2-.1.3-.2.3,0,0-.2,0-.4,0h-11.3c.1,1.2.5,2.2,1.1,3.1.6.8,1.3,1.5,2.2,1.9s1.9.7,3,.7,1.5,0,2.2-.2c.7-.2,1.4-.4,2.1-.7,0,0,.1,0,.2,0,.1,0,.2,0,.2.3v1.3c-.2.1-.2.2-.2.3s-.1.1-.2.2c-.6.3-1.3.5-2,.6s-1.6.2-2.5.2c-1.5,0-2.9-.3-4.2-1ZM211.5,184.5c-.4-.8-1-1.3-1.7-1.7s-1.5-.6-2.4-.6-1.7.2-2.5.6c-.7.4-1.3,1-1.8,1.7-.4.8-.7,1.7-.8,2.7h9.8c0-1.1-.3-2-.7-2.8Z"/>
    <path class="st2" d="M219.1,196.2v-15.3c0,0,0-.2,0-.2s.1,0,.2,0h1.6c0,0,.1,0,.2,0s0,.1,0,.2v2.2c.7-.9,1.4-1.6,2.3-2.1.9-.5,1.8-.7,2.9-.7s2,.2,2.9.7c.8.5,1.5,1.1,2,2,.5.9.7,1.8.7,2.9v10.3c0,.2,0,.3-.3.3h-1.7c-.2,0-.3,0-.3-.3v-9.7c0-.8-.2-1.5-.5-2.1-.3-.6-.8-1.1-1.4-1.4-.6-.3-1.3-.5-2-.5-1.7,0-3.1.8-4.5,2.4v11.4c0,0,0,.2,0,.2s-.1,0-.2,0h-1.7c-.2,0-.3,0-.3-.3Z"/>
    <path class="st2" d="M240.9,196.2c-.7-.4-1.3-1-1.7-1.7-.4-.7-.6-1.6-.6-2.7v-9.2h-3.1c0,0-.2,0-.2,0,0,0,0-.1,0-.2v-1.4c.2-.2.3-.3.5-.3h2.9v-3.7c0-.2,0-.3.3-.3h1.7c.2,0,.3,0,.3.3v3.7h5c0,0,.1,0,.2,0s0,.1,0,.2v1.5c0,.2,0,.3-.3.3h-5v8.9c0,1,.3,1.8.8,2.3.5.6,1.3.8,2.2.8s1.5-.2,2.3-.5c0,0,.2,0,.2,0,.1,0,.2.1.2.3v1.4c-.2.1-.2.2-.2.3,0,0-.1.1-.2.2-.3.1-.7.3-1.2.4s-1,.2-1.4.2c-1,0-1.8-.2-2.6-.6Z"/>
    <path class="st2" d="M253.1,195.8c-1.3-.7-2.2-1.6-3-2.9-.7-1.3-1.1-2.7-1.1-4.4s.3-3,1-4.2c.7-1.2,1.5-2.2,2.7-2.9,1.1-.7,2.4-1,3.8-1s2.6.3,3.6.9c1,.6,1.8,1.5,2.3,2.6s.8,2.3.8,3.7,0,.8-.1,1.2c0,.2-.1.3-.2.3,0,0-.2,0-.4,0h-11.3c.1,1.2.5,2.2,1.1,3.1.6.8,1.3,1.5,2.2,1.9s1.9.7,3,.7,1.5,0,2.2-.2c.7-.2,1.4-.4,2.1-.7,0,0,.1,0,.2,0,.1,0,.2,0,.2.3v1.3c-.2.1-.2.2-.2.3s-.1.1-.2.2c-.6.3-1.3.5-2,.6s-1.6.2-2.5.2c-1.5,0-2.9-.3-4.2-1ZM260.4,184.5c-.4-.8-1-1.3-1.7-1.7s-1.5-.6-2.4-.6-1.7.2-2.5.6c-.7.4-1.3,1-1.8,1.7-.4.8-.7,1.7-.8,2.7h9.8c0-1.1-.3-2-.7-2.8Z"/>
    <path class="st2" d="M279,195.7c-1.1-.7-2-1.6-2.7-2.9s-1-2.7-1-4.3.3-3,1-4.3,1.6-2.2,2.8-2.9c1.2-.7,2.4-1,3.8-1s1.6.1,2.4.4c.8.2,1.5.6,2.1,1v-8.4c0-.2,0-.3.3-.3h1.7c.2,0,.3,0,.3.3v23c0,.2,0,.3-.3.3h-1.6c-.2,0-.3,0-.3-.3v-1.6c-.6.7-1.3,1.2-2.1,1.6-.8.4-1.8.6-2.8.6s-2.5-.3-3.6-1ZM285.4,194.3c.7-.3,1.4-.8,1.9-1.4v-8.8c-.6-.6-1.3-1-2.1-1.3-.8-.3-1.6-.5-2.5-.5s-1.9.2-2.7.7c-.8.5-1.4,1.2-1.9,2.1s-.7,2-.7,3.2.3,2.4.8,3.4c.5,1,1.2,1.7,2,2.3.9.5,1.8.8,2.8.8s1.6-.2,2.3-.5Z"/>
    <path class="st2" d="M297.9,195.8c-1.3-.7-2.2-1.6-3-2.9-.7-1.3-1.1-2.7-1.1-4.4s.3-3,1-4.2c.7-1.2,1.5-2.2,2.7-2.9,1.1-.7,2.4-1,3.8-1s2.6.3,3.6.9c1,.6,1.8,1.5,2.3,2.6s.8,2.3.8,3.7,0,.8-.1,1.2c0,.2-.1.3-.2.3,0,0-.2,0-.4,0h-11.3c.1,1.2.5,2.2,1.1,3.1.6.8,1.3,1.5,2.2,1.9s1.9.7,3,.7,1.5,0,2.2-.2c.7-.2,1.4-.4,2.1-.7,0,0,.1,0,.2,0,.1,0,.2,0,.2.3v1.3c-.2.1-.2.2-.2.3s-.1.1-.2.2c-.6.3-1.3.5-2,.6s-1.6.2-2.5.2c-1.5,0-2.9-.3-4.2-1ZM305.2,184.5c-.4-.8-1-1.3-1.7-1.7s-1.5-.6-2.4-.6-1.7.2-2.5.6c-.7.4-1.3,1-1.8,1.7-.4.8-.7,1.7-.8,2.7h9.8c0-1.1-.3-2-.7-2.8Z"/>
    <path class="st2" d="M321.5,196.2v-15.3c0,0,0-.2,0-.2s.1,0,.2,0h1.6c0,0,.1,0,.2,0s0,.1,0,.2v2.2c.6-.9,1.3-1.6,2.1-2.1.8-.5,1.7-.7,2.7-.7s1.9.3,2.7.8,1.3,1.2,1.7,2.2c1.4-2,3.2-2.9,5.2-2.9s1.9.2,2.6.7c.8.5,1.4,1.1,1.8,2,.4.8.6,1.8.6,2.9v10.3c0,.2,0,.3-.3.3h-1.7c0,0-.2,0-.2,0s0-.1,0-.2v-9.7c0-.8-.1-1.5-.4-2.1-.3-.6-.7-1.1-1.2-1.4-.5-.3-1.1-.5-1.8-.5-1.5,0-2.8.8-3.9,2.3v11.5c0,.2,0,.3-.3.3h-1.7c-.2,0-.3,0-.3-.3v-9.7c0-.8-.1-1.5-.4-2.1s-.7-1.1-1.2-1.4c-.5-.3-1.1-.5-1.8-.5s-1.4.2-2.1.6c-.7.4-1.3,1-1.9,1.8v11.4c0,0,0,.2,0,.2s-.1,0-.2,0h-1.7c-.2,0-.3,0-.3-.3Z"/>
    <path class="st2" d="M361.2,180.7s0,.1,0,.2v15.3c0,.2,0,.3-.3.3h-1.6c0,0-.2,0-.2,0s0-.1,0-.2v-2.2c-.6.9-1.4,1.6-2.2,2.1s-1.8.7-2.8.7-2-.2-2.8-.7c-.8-.5-1.5-1.1-1.9-2s-.7-1.8-.7-2.9v-10.3c0,0,0-.2,0-.2s.1,0,.2,0h1.7c0,0,.2,0,.2,0s0,.1,0,.2v9.7c0,.8.2,1.5.5,2.1.3.6.7,1.1,1.3,1.4s1.2.5,2,.5c1.6,0,3-.8,4.4-2.3v-11.4c0,0,0-.2,0-.2s.1,0,.2,0h1.7c0,0,.1,0,.2,0Z"/>
    <path class="st2" d="M369.8,195.7c-1.1-.7-2-1.6-2.7-2.9s-1-2.7-1-4.3.3-3,1-4.3,1.6-2.2,2.8-2.9c1.2-.7,2.4-1,3.8-1s1.6.1,2.4.4c.8.2,1.5.6,2.1,1v-8.4c0-.2,0-.3.3-.3h1.7c.2,0,.3,0,.3.3v23c0,.2,0,.3-.3.3h-1.6c-.2,0-.3,0-.3-.3v-1.6c-.6.7-1.3,1.2-2.1,1.6-.8.4-1.8.6-2.8.6s-2.5-.3-3.6-1ZM376.3,194.3c.7-.3,1.4-.8,1.9-1.4v-8.8c-.6-.6-1.3-1-2.1-1.3-.8-.3-1.6-.5-2.5-.5s-1.9.2-2.7.7c-.8.5-1.4,1.2-1.9,2.1s-.7,2-.7,3.2.3,2.4.8,3.4c.5,1,1.2,1.7,2,2.3.9.5,1.8.8,2.8.8s1.6-.2,2.3-.5Z"/>
    <path class="st2" d="M387.5,196.3c-.7-.3-1.3-.8-1.7-1.5s-.6-1.4-.6-2.2c0-1.3.4-2.3,1.2-3.1s2-1.3,3.4-1.5l5-.7v-1c0-1.2-.4-2.1-1.1-2.9-.7-.7-1.8-1.1-3.1-1.1s-2.8.4-4.3,1.1c0,0-.1,0-.1,0-.1,0-.2,0-.2-.3l.2-1.4c0-.2.1-.4.3-.5.6-.3,1.3-.6,2.1-.7.8-.2,1.6-.3,2.4-.3,1.2,0,2.3.2,3.2.7s1.6,1.2,2.1,2,.7,1.9.7,2.9v6.2c0,.8,0,1.5,0,2.1,0,.6.1,1.2.2,1.8h0c0,.2,0,.3-.3.3h-1.5c0,.1,0,.1,0,.1-.2,0-.3,0-.3-.2-.1-.4-.2-.9-.3-1.5-.7.7-1.6,1.2-2.4,1.5s-1.7.5-2.6.5-1.7-.2-2.4-.5ZM392.7,194.4c.8-.3,1.5-.8,2.2-1.3v-4.1l-4.6.7c-.9.1-1.6.4-2.1.9-.5.5-.8,1-.8,1.8s.3,1.4.8,1.9c.5.5,1.3.7,2.2.7s1.5-.2,2.3-.5Z"/>
    <path class="st2" d="M403,196.2v-15.3c0,0,0-.2,0-.2s.1,0,.2,0h1.6c0,0,.1,0,.2,0s0,.1,0,.2v2.2c.7-.9,1.4-1.6,2.3-2.1.9-.5,1.8-.7,2.9-.7s2,.2,2.9.7c.8.5,1.5,1.1,2,2,.5.9.7,1.8.7,2.9v10.3c0,.2,0,.3-.3.3h-1.7c-.2,0-.3,0-.3-.3v-9.7c0-.8-.2-1.5-.5-2.1-.3-.6-.8-1.1-1.4-1.4-.6-.3-1.3-.5-2-.5-1.7,0-3.1.8-4.5,2.4v11.4c0,0,0,.2,0,.2s-.1,0-.2,0h-1.7c-.2,0-.3,0-.3-.3Z"/>
    <path class="st2" d="M426.3,202.6c-.4,0-.7-.2-1-.4-.1,0-.2-.2-.3-.2,0,0-.1-.2-.1-.4v-1.1c-.1,0-.1,0-.1,0,0-.2,0-.2.2-.2s.2,0,.2,0c.3.2.6.4,1,.5.4.1.8.2,1.1.2s.9,0,1.2-.3c.3-.2.4-.5.4-.8s-.2-.5-.5-.7c-.3-.2-.9-.3-1.7-.4-.2,0-.3-.1-.3-.4l.3-1.8c-1.2-.2-2.3-.7-3.3-1.4-1-.7-1.7-1.7-2.3-2.8-.6-1.1-.8-2.4-.8-3.8s.3-3,1-4.3c.7-1.3,1.6-2.2,2.8-2.9,1.2-.7,2.5-1,4-1s1.6.1,2.4.3c.8.2,1.5.6,2.2,1,0,0,.1.1.1.2s0,0,0,.2l-.8,1.4c0,0-.1.1-.2.1s-.1,0-.2,0c-1.3-.8-2.6-1.2-3.9-1.2s-1.9.2-2.7.7c-.8.5-1.4,1.2-1.9,2.1-.5.9-.7,2-.7,3.2s.3,2.4.8,3.4c.5,1,1.3,1.7,2.2,2.3.9.5,1.9.8,3,.8s2.5-.3,3.9-.9c0,0,.1,0,.2,0,.1,0,.2.1.2.3v1.4c-.2.1-.2.2-.2.3,0,0-.1.1-.2.2-.6.3-1.2.5-1.9.6s-1.4.2-2.2.2v.8c.8.2,1.5.4,1.9.8.4.4.6.9.6,1.5s-.1,1.1-.4,1.5c-.3.4-.7.8-1.3,1-.5.2-1.2.4-1.8.4s-.8,0-1.1-.1Z"/>
    <path class="st2" d="M438.5,196.3c-.7-.3-1.3-.8-1.7-1.5s-.6-1.4-.6-2.2c0-1.3.4-2.3,1.2-3.1s2-1.3,3.4-1.5l5-.7v-1c0-1.2-.4-2.1-1.1-2.9-.7-.7-1.8-1.1-3.1-1.1s-2.8.4-4.3,1.1c0,0-.1,0-.1,0-.1,0-.2,0-.2-.3l.2-1.4c0-.2.1-.4.3-.5.6-.3,1.3-.6,2.1-.7.8-.2,1.6-.3,2.4-.3,1.2,0,2.3.2,3.2.7s1.6,1.2,2.1,2,.7,1.9.7,2.9v6.2c0,.8,0,1.5,0,2.1,0,.6.1,1.2.2,1.8h0c0,.2,0,.3-.3.3h-1.5c0,.1,0,.1,0,.1-.2,0-.3,0-.3-.2-.1-.4-.2-.9-.3-1.5-.7.7-1.6,1.2-2.4,1.5s-1.7.5-2.6.5-1.7-.2-2.4-.5ZM443.7,194.4c.8-.3,1.5-.8,2.2-1.3v-4.1l-4.6.7c-.9.1-1.6.4-2.1.9-.5.5-.8,1-.8,1.8s.3,1.4.8,1.9c.5.5,1.3.7,2.2.7s1.5-.2,2.3-.5Z"/>
    <path class="st2" d="M465,195.7c-1.1-.7-2-1.6-2.7-2.9s-1-2.7-1-4.3.3-3,1-4.3,1.6-2.2,2.8-2.9c1.2-.7,2.4-1,3.8-1s1.6.1,2.4.4c.8.2,1.5.6,2.1,1v-8.4c0-.2,0-.3.3-.3h1.7c.2,0,.3,0,.3.3v23c0,.2,0,.3-.3.3h-1.6c-.2,0-.3,0-.3-.3v-1.6c-.6.7-1.3,1.2-2.1,1.6-.8.4-1.8.6-2.8.6s-2.5-.3-3.6-1ZM471.5,194.3c.7-.3,1.4-.8,1.9-1.4v-8.8c-.6-.6-1.3-1-2.1-1.3-.8-.3-1.6-.5-2.5-.5s-1.9.2-2.7.7c-.8.5-1.4,1.2-1.9,2.1s-.7,2-.7,3.2.3,2.4.8,3.4c.5,1,1.2,1.7,2,2.3.9.5,1.8.8,2.8.8s1.6-.2,2.3-.5Z"/>
    <path class="st2" d="M482.7,196.3c-.7-.3-1.3-.8-1.7-1.5s-.6-1.4-.6-2.2c0-1.3.4-2.3,1.2-3.1s2-1.3,3.4-1.5l5-.7v-1c0-1.2-.4-2.1-1.1-2.9-.7-.7-1.8-1.1-3.1-1.1s-2.8.4-4.3,1.1c0,0-.1,0-.1,0-.1,0-.2,0-.2-.3l.2-1.4c0-.2.1-.4.3-.5.6-.3,1.3-.6,2.1-.7.8-.2,1.6-.3,2.4-.3,1.2,0,2.3.2,3.2.7s1.6,1.2,2.1,2,.7,1.9.7,2.9v6.2c0,.8,0,1.5,0,2.1,0,.6.1,1.2.2,1.8h0c0,.2,0,.3-.3.3h-1.5c0,.1,0,.1,0,.1-.2,0-.3,0-.3-.2-.1-.4-.2-.9-.3-1.5-.7.7-1.6,1.2-2.4,1.5s-1.7.5-2.6.5-1.7-.2-2.4-.5ZM487.9,194.4c.8-.3,1.5-.8,2.2-1.3v-4.1l-4.6.7c-.9.1-1.6.4-2.1.9-.5.5-.8,1-.8,1.8s.3,1.4.8,1.9c.5.5,1.3.7,2.2.7s1.5-.2,2.3-.5Z"/>
    <path class="st2" d="M506.1,195.2c0,0-.2-.1-.2-.2,0,0,0-.2,0-.3v-1.6c-.1,0-.1,0-.1,0,0-.2,0-.2.2-.2s.1,0,.2,0c.9.7,1.8,1.1,2.8,1.5s1.9.5,2.8.5,1.9-.2,2.5-.7c.6-.4.9-1,.9-1.8s-.2-1-.5-1.4c-.4-.4-.8-.7-1.3-.9-.5-.2-1.2-.5-2.1-.8-1.1-.4-2-.7-2.7-1-.7-.3-1.3-.8-1.7-1.4-.5-.6-.7-1.3-.7-2.2s.2-1.7.7-2.3c.5-.7,1.1-1.2,2-1.6.8-.4,1.8-.6,3-.6,1.8,0,3.5.5,5,1.4,0,0,.1.1.1.2s0,0,0,.1l-.7,1.4c0,0-.1.1-.2.1s-.1,0-.2,0c-.7-.4-1.4-.8-2.1-1-.7-.2-1.4-.3-2.2-.3s-1.7.2-2.2.6c-.6.4-.8,1-.8,1.7s.2.9.5,1.2.8.6,1.3.9c.5.2,1.2.5,2.1.8,1.1.4,2.1.7,2.8,1.1.7.3,1.3.8,1.8,1.4.5.6.7,1.4.7,2.4s-.2,1.6-.7,2.3c-.5.7-1.1,1.2-2,1.6-.9.4-1.9.6-3,.6-2.1,0-3.9-.5-5.4-1.6Z"/>
    <path class="st2" d="M534.2,180.7s0,.1,0,.2v15.3c0,.2,0,.3-.3.3h-1.6c0,0-.2,0-.2,0s0-.1,0-.2v-2.2c-.6.9-1.4,1.6-2.2,2.1s-1.8.7-2.8.7-2-.2-2.8-.7c-.8-.5-1.5-1.1-1.9-2s-.7-1.8-.7-2.9v-10.3c0,0,0-.2,0-.2s.1,0,.2,0h1.7c0,0,.2,0,.2,0s0,.1,0,.2v9.7c0,.8.2,1.5.5,2.1.3.6.7,1.1,1.3,1.4s1.2.5,2,.5c1.6,0,3-.8,4.4-2.3v-11.4c0,0,0-.2,0-.2s.1,0,.2,0h1.7c0,0,.1,0,.2,0Z"/>
    <path class="st2" d="M541.6,196.3c-.7-.3-1.3-.8-1.7-1.5s-.6-1.4-.6-2.2c0-1.3.4-2.3,1.2-3.1s2-1.3,3.4-1.5l5-.7v-1c0-1.2-.4-2.1-1.1-2.9-.7-.7-1.8-1.1-3.1-1.1s-2.8.4-4.3,1.1c0,0-.1,0-.1,0-.1,0-.2,0-.2-.3l.2-1.4c0-.2.1-.4.3-.5.6-.3,1.3-.6,2.1-.7.8-.2,1.6-.3,2.4-.3,1.2,0,2.3.2,3.2.7s1.6,1.2,2.1,2,.7,1.9.7,2.9v6.2c0,.8,0,1.5,0,2.1,0,.6.1,1.2.2,1.8h0c0,.2,0,.3-.3.3h-1.5c0,.1,0,.1,0,.1-.2,0-.3,0-.3-.2-.1-.4-.2-.9-.3-1.5-.7.7-1.6,1.2-2.4,1.5s-1.7.5-2.6.5-1.7-.2-2.4-.5ZM546.8,194.4c.8-.3,1.5-.8,2.2-1.3v-4.1l-4.6.7c-.9.1-1.6.4-2.1.9-.5.5-.8,1-.8,1.8s.3,1.4.8,1.9c.5.5,1.3.7,2.2.7s1.5-.2,2.3-.5Z"/>
    <path class="st2" d="M568.3,195.7c-1.2-.7-2.2-1.6-2.9-2.9-.7-1.2-1.1-2.7-1.1-4.3s.3-3,1-4.3c.7-1.3,1.6-2.2,2.8-2.9,1.2-.7,2.5-1,4-1s1.6.1,2.4.3c.8.2,1.5.6,2.2,1,0,0,.1.1.1.2s0,0,0,.2l-.8,1.4c0,0-.1.1-.2.1s-.1,0-.2,0c-1.3-.8-2.6-1.2-3.9-1.2s-1.9.2-2.7.7c-.8.5-1.4,1.2-1.9,2.1-.5.9-.7,2-.7,3.2s.3,2.4.8,3.4c.5,1,1.3,1.7,2.2,2.3.9.5,1.9.8,3,.8s2.5-.3,3.9-.9c0,0,.1,0,.2,0,.1,0,.2.1.2.3v1.4c-.2.1-.2.2-.2.3,0,0-.1.1-.2.2-.6.3-1.2.5-1.9.6-.7.2-1.4.2-2.2.2-1.4,0-2.8-.3-4-1Z"/>
    <path class="st2" d="M582.5,196.3c-.7-.3-1.3-.8-1.7-1.5s-.6-1.4-.6-2.2c0-1.3.4-2.3,1.2-3.1s2-1.3,3.4-1.5l5-.7v-1c0-1.2-.4-2.1-1.1-2.9-.7-.7-1.8-1.1-3.1-1.1s-2.8.4-4.3,1.1c0,0-.1,0-.1,0-.1,0-.2,0-.2-.3l.2-1.4c0-.2.1-.4.3-.5.6-.3,1.3-.6,2.1-.7.8-.2,1.6-.3,2.4-.3,1.2,0,2.3.2,3.2.7s1.6,1.2,2.1,2,.7,1.9.7,2.9v6.2c0,.8,0,1.5,0,2.1,0,.6.1,1.2.2,1.8h0c0,.2,0,.3-.3.3h-1.5c0,.1,0,.1,0,.1-.2,0-.3,0-.3-.2-.1-.4-.2-.9-.3-1.5-.7.7-1.6,1.2-2.4,1.5s-1.7.5-2.6.5-1.7-.2-2.4-.5ZM587.7,194.4c.8-.3,1.5-.8,2.2-1.3v-4.1l-4.6.7c-.9.1-1.6.4-2.1.9-.5.5-.8,1-.8,1.8s.3,1.4.8,1.9c.5.5,1.3.7,2.2.7s1.5-.2,2.3-.5Z"/>
    <path class="st2" d="M598,196.2v-15.3c0,0,0-.2,0-.2s.1,0,.2,0h1.6c0,0,.1,0,.2,0s0,.1,0,.2v2.4c.6-.9,1.2-1.7,1.9-2.2.7-.5,1.6-.8,2.4-.8s1.4.2,2,.5c.1,0,.2.1.2.3v.2s-.5,1.5-.5,1.5c0,.1-.1.2-.2.2s-.1,0-.2,0c-.3-.1-.6-.2-.8-.3-.3,0-.5-.1-.9-.1-.7,0-1.4.2-2.1.7-.6.5-1.2,1.2-1.8,2.1v11c0,0,0,.2,0,.2s-.1,0-.2,0h-1.7c-.2,0-.3,0-.3-.3Z"/>
    <path class="st2" d="M610.9,196.2v-15.3c0,0,0-.2,0-.2s.1,0,.2,0h1.6c0,0,.1,0,.2,0s0,.1,0,.2v2.4c.6-.9,1.2-1.7,1.9-2.2.7-.5,1.6-.8,2.4-.8s1.4.2,2,.5c.1,0,.2.1.2.3v.2s-.5,1.5-.5,1.5c0,.1-.1.2-.2.2s-.1,0-.2,0c-.3-.1-.6-.2-.8-.3-.3,0-.5-.1-.9-.1-.7,0-1.4.2-2.1.7-.6.5-1.2,1.2-1.8,2.1v11c0,0,0,.2,0,.2s-.1,0-.2,0h-1.7c-.2,0-.3,0-.3-.3Z"/>
    <path class="st2" d="M625.7,195.8c-1.3-.7-2.2-1.6-3-2.9-.7-1.3-1.1-2.7-1.1-4.4s.3-3,1-4.2c.7-1.2,1.5-2.2,2.7-2.9,1.1-.7,2.4-1,3.8-1s2.6.3,3.6.9c1,.6,1.8,1.5,2.3,2.6s.8,2.3.8,3.7,0,.8-.1,1.2c0,.2-.1.3-.2.3,0,0-.2,0-.4,0h-11.3c.1,1.2.5,2.2,1.1,3.1.6.8,1.3,1.5,2.2,1.9s1.9.7,3,.7,1.5,0,2.2-.2c.7-.2,1.4-.4,2.1-.7,0,0,.1,0,.2,0,.1,0,.2,0,.2.3v1.3c-.2.1-.2.2-.2.3s-.1.1-.2.2c-.6.3-1.3.5-2,.6s-1.6.2-2.5.2c-1.5,0-2.9-.3-4.2-1ZM632.9,184.5c-.4-.8-1-1.3-1.7-1.7s-1.5-.6-2.4-.6-1.7.2-2.5.6c-.7.4-1.3,1-1.8,1.7-.4.8-.7,1.7-.8,2.7h9.8c0-1.1-.3-2-.7-2.8Z"/>
    <path class="st2" d="M640.5,176.4c-.3-.3-.5-.8-.5-1.3s.2-.9.5-1.3c.3-.3.7-.5,1.2-.5s.9.2,1.2.5.5.8.5,1.3-.2.9-.5,1.2-.7.5-1.2.5-.9-.2-1.2-.5ZM640.5,196.2v-15.3c0,0,0-.2,0-.2s.1,0,.2,0h1.7c0,0,.2,0,.2,0s0,.1,0,.2v15.3c0,0,0,.2,0,.2s-.1,0-.2,0h-1.7c-.2,0-.3,0-.3-.3Z"/>
    <path class="st2" d="M649,196.2v-15.3c0,0,0-.2,0-.2s.1,0,.2,0h1.6c0,0,.1,0,.2,0s0,.1,0,.2v2.4c.6-.9,1.2-1.7,1.9-2.2.7-.5,1.6-.8,2.4-.8s1.4.2,2,.5c.1,0,.2.1.2.3v.2s-.5,1.5-.5,1.5c0,.1-.1.2-.2.2s-.1,0-.2,0c-.3-.1-.6-.2-.8-.3-.3,0-.5-.1-.9-.1-.7,0-1.4.2-2.1.7-.6.5-1.2,1.2-1.8,2.1v11c0,0,0,.2,0,.2s-.1,0-.2,0h-1.7c-.2,0-.3,0-.3-.3Z"/>
    <path class="st2" d="M662.6,196.3c-.7-.3-1.3-.8-1.7-1.5s-.6-1.4-.6-2.2c0-1.3.4-2.3,1.2-3.1s2-1.3,3.4-1.5l5-.7v-1c0-1.2-.4-2.1-1.1-2.9-.7-.7-1.8-1.1-3.1-1.1s-2.8.4-4.3,1.1c0,0-.1,0-.1,0-.1,0-.2,0-.2-.3l.2-1.4c0-.2.1-.4.3-.5.6-.3,1.3-.6,2.1-.7.8-.2,1.6-.3,2.4-.3,1.2,0,2.3.2,3.2.7s1.6,1.2,2.1,2,.7,1.9.7,2.9v6.2c0,.8,0,1.5,0,2.1,0,.6.1,1.2.2,1.8h0c0,.2,0,.3-.3.3h-1.5c0,.1,0,.1,0,.1-.2,0-.3,0-.3-.2-.1-.4-.2-.9-.3-1.5-.7.7-1.6,1.2-2.4,1.5s-1.7.5-2.6.5-1.7-.2-2.4-.5ZM667.8,194.4c.8-.3,1.5-.8,2.2-1.3v-4.1l-4.6.7c-.9.1-1.6.4-2.1.9-.5.5-.8,1-.8,1.8s.3,1.4.8,1.9c.5.5,1.3.7,2.2.7s1.5-.2,2.3-.5Z"/>
  </g>
  <text class="st0" transform="translate(-6.3 102.1)"><tspan x="0" y="0">&lt;</tspan></text>
  <g>
    <text class="st0" transform="translate(723.2 102.1)"><tspan x="0" y="0">&gt;</tspan></text>
    <text class="st1" transform="translate(701 91.3)"><tspan x="0" y="0">/</tspan></text>
  </g>
</svg>